Coordinates
version=1
nRows=22
nColumns=24
inDegrees=yes

Units are S.I. units (second, meters, Newtons, ...)
Angles are in degrees.

endheader
time	pelvis_tilt	pelvis_list	pelvis_rotation	pelvis_tx	pelvis_ty	pelvis_tz	hip_flexion_r	hip_adduction_r	hip_rotation_r	knee_angle_r	ankle_angle_r	subtalar_angle_r	mtp_angle_r	hip_flexion_l	hip_adduction_l	hip_rotation_l	knee_angle_l	ankle_angle_l	subtalar_angle_l	mtp_angle_l	lumbar_extension	lumbar_bending	lumbar_rotation
      2.52000000	      8.76430077	     -2.19180933	     -5.14152857	      0.91998433	      0.98630387	      0.02230729	    -22.07901324	     -3.71493495	    -13.07493270	    -33.48139853	    -14.47986532	      9.24267162	     35.00033724	     12.55972506	     -4.35879979	    -25.07939785	    -22.56086643	     -5.66280277	     -5.30610219	     13.49268798	    -11.98212769	    -10.48069205	    -18.54619883
      2.52500000	      8.84340725	     -2.24813771	     -4.79356942	      0.92655221	      0.98744521	      0.02109629	    -21.43992880	     -3.74285359	    -12.98559869	    -35.01168459	    -15.26003426	      8.77729709	     32.28447189	     12.14002951	     -4.25809918	    -24.78373283	    -22.64746700	     -5.20863218	     -5.14299443	     12.78569399	    -12.09801769	    -10.38705605	    -18.87682364
      2.53000000	      8.88495416	     -2.31684592	     -4.42767128	      0.93300990	      0.98852709	      0.01984940	    -20.72376883	     -3.73973335	    -12.90256728	    -36.54577746	    -15.94532647	      8.23833576	     30.36995462	     11.76232520	     -4.16485031	    -24.41723339	    -22.70926357	     -4.80092597	     -5.05199871	     12.31992802	    -12.18601316	    -10.26500459	    -19.21034764
      2.53500000	      8.95186637	     -2.39361264	     -4.07377086	      0.93944821	      0.98967690	      0.01867468	    -20.01923159	     -3.71580633	    -12.79144135	    -38.03995198	    -16.51383572	      7.67657699	     28.39588600	     11.33923131	     -4.09280000	    -24.09880965	    -22.74587083	     -4.42567581	     -4.92142648	     11.95611668	    -12.29981141	    -10.14481647	    -19.56767725
      2.54000000	      9.00154416	     -2.47951409	     -3.72114816	      0.94580936	      0.99079212	      0.01750252	    -19.26753932	     -3.67194077	    -12.68035565	    -39.53117436	    -16.86436325	      7.14369967	     26.32800248	     10.93588695	     -4.03464374	    -23.75837998	    -22.78198596	     -4.03813327	     -4.81546020	     11.59387165	    -12.39818120	    -10.00611248	    -19.90909767
      2.54500000	      9.05561870	     -2.57153958	     -3.37158379	      0.95212065	      0.99193687	      0.01633446	    -18.50530805	     -3.61280537	    -12.58001992	    -40.97959624	    -17.08860905	      6.59618554	     24.42739597	     10.51270661	     -3.98190284	    -23.40308983	    -22.77635091	     -3.68530105	     -4.70037022	     11.27177363	    -12.50415618	     -9.84968244	    -20.20364941
      2.55000000	      9.08393951	     -2.68328967	     -3.03195177	      0.95833211	      0.99301978	      0.01522371	    -17.68747253	     -3.51957549	    -12.44677897	    -42.41693929	    -17.04896781	      6.18414609	     22.39919460	     10.12828972	     -3.96775121	    -23.06975969	    -22.79173118	     -3.30787645	     -4.59425422	     10.88245275	    -12.58928776	     -9.67866929	    -20.54934471
      2.55500000	      9.11701745	     -2.79493365	     -2.69195369	      0.96452657	      0.99412849	      0.01411873	    -16.87011838	     -3.42020657	    -12.34968556	    -43.78909044	    -16.92005852	      5.77356256	     20.68452324	      9.72351192	     -3.95393503	    -22.72856617	    -22.77529708	     -2.94805169	     -4.46725934	     10.52723021	    -12.67106057	     -9.50121861	    -20.85994777
      2.56000000	      9.13332785	     -2.92670464	     -2.35378660	      0.97065062	      0.99521484	      0.01303977	    -16.02693943	     -3.28631561	    -12.25891637	    -45.08393876	    -16.78436882	      5.28755783	     20.44243687	      9.33615893	     -3.96700823	    -22.37165302	    -22.73901764	     -2.66969485	     -4.38718183	     10.50944471	    -12.74268617	     -9.29679688	    -21.16923502
      2.56500000	      9.18995540	     -3.04114926	     -2.03790092	      0.97674298	      0.99635484	      0.01200795	    -15.21311313	     -3.17613594	    -12.18826037	    -46.35692204	    -16.23369286	      5.01779965	     17.94364899	      8.88864659	     -3.97045397	    -22.07372270	    -22.68682430	     -2.28797004	     -4.21300234	      9.90935682	    -12.85287860	     -9.11665371	    -21.45433672
      2.57000000	      9.21062026	     -3.17977299	     -1.70968917	      0.98277872	      0.99744578	      0.01098075	    -14.36352419	     -3.02691949	    -12.14459962	    -47.51954286	    -15.82927304	      4.66081966	     17.84295421	      8.48754387	     -4.00451440	    -21.74185710	    -22.62537032	     -2.02979663	     -4.12239540	      9.89412101	    -12.92811047	     -8.90430664	    -21.76437161
      2.57500000	      9.25717842	     -3.31602486	     -1.40629167	      0.98876106	      0.99857425	      0.01000795	    -13.52848758	     -2.88209236	    -12.11210222	    -48.63711951	    -15.14427837	      4.39513914	     16.15701824	      8.04230893	     -4.04448867	    -21.45530562	    -22.54072417	     -1.69250704	     -3.94525039	      9.26731665	    -13.03052409	     -8.69423318	    -22.02505967
      2.58000000	      9.28529645	     -3.45221309	     -1.09034058	      0.99471135	      0.99966032	      0.00902184	    -12.68055816	     -2.73678639	    -12.13046095	    -49.65080031	    -14.55005756	      4.14262110	     16.15509195	      7.62204396	     -4.08802451	    -21.15479684	    -22.45165784	     -1.45152556	     -3.83913774	      9.26085539	    -13.11726688	     -8.48069633	    -22.31791118
      2.58500000	      9.31529807	     -3.59770007	     -0.80049129	      1.00062714	      1.00075583	      0.00810314	    -11.82861969	     -2.57796641	    -12.14961145	    -50.59301244	    -13.78472461	      3.91030671	     15.20254228	      7.18496680	     -4.15097731	    -20.89456493	    -22.33786868	     -1.13137670	     -3.65215056	      8.64022176	    -13.19693800	     -8.25789894	    -22.56691750
      2.59000000	      9.34634332	     -3.73620330	     -0.49852932	      1.00649340	      1.00182494	      0.00716757	    -10.98314898	     -2.43053703	    -12.22533751	    -51.44019677	    -13.06626279	      3.69633936	     15.26259799	      6.75156418	     -4.20834689	    -20.61616758	    -22.21661359	     -0.91895743	     -3.52793015	      8.63448135	    -13.28654315	     -8.03793490	    -22.83872755
      2.59500000	      9.36553358	     -3.87904962	     -0.20929654	      1.01236651	      1.00289064	      0.00626781	    -10.13331275	     -2.27785569	    -12.32080643	    -52.18599061	    -12.31250089	      3.47712027	     15.30724002	      6.31630120	     -4.27594202	    -20.36356493	    -22.06562176	     -0.71135634	     -3.39355205	      8.59318564	    -13.35210966	     -7.81057512	    -23.08971970
      2.60000000	      9.43238284	     -4.02068658	      0.05242069	      1.01822421	      1.00400244	      0.00542972	     -9.34324389	     -2.13029044	    -12.42615340	    -52.83298561	    -11.50735740	      3.24795548	     15.38149748	      5.81715275	     -4.35128201	    -20.16803188	    -21.89510698	     -0.54296660	     -3.28495169	      8.57442497	    -13.46537463	     -7.58888520	    -23.29322475
      2.60500000	      9.41194616	     -4.15117770	      0.33638402	      1.02397207	      1.00494999	      0.00457167	     -8.44172131	     -1.99563375	    -12.57947427	    -53.43424463	    -10.71552717	      3.07831470	     15.45358964	      5.44310934	     -4.42199119	    -19.91667880	    -21.76878239	     -0.32158733	     -3.10012615	      8.50155656	    -13.49757929	     -7.37715369	    -23.57338189
      2.61000000	      9.42300519	     -4.28137735	      0.60566038	      1.02973877	      1.00593551	      0.00375041	     -7.59626600	     -1.86246924	    -12.75308128	    -53.91646749	     -9.88419683	      2.90077672	     15.54789402	      5.01016238	     -4.49486800	    -19.71125547	    -21.59446623	     -0.12627569	     -2.93567601	      8.39484793	    -13.55241627	     -7.16381735	    -23.81689771
      2.61500000	      9.47163047	     -4.41434058	      0.84784507	      1.03552140	      1.00696196	      0.00298111	     -6.80852397	     -1.72951026	    -12.93497236	    -54.28882417	     -9.03607435	      2.69647885	     15.65469299	      4.52148443	     -4.57878345	    -19.56366753	    -21.39796890	      0.00523300	     -2.81068900	      8.33766253	    -13.64467318	     -6.94555751	    -23.98994569
      2.62000000	      9.46653978	     -4.53623339	      1.13180771	      1.04125673	      1.00786948	      0.00216976	     -5.97257119	     -1.60888526	    -13.18056118	    -54.57264191	     -8.27804478	      2.54190370	     16.29443052	      4.11668655	     -4.65634884	    -19.34792529	    -21.25350936	      0.47392522	     -2.43699087	      6.45733224	    -13.68294134	     -6.73776579	    -24.27039594
      2.62500000	      9.49100731	     -4.64926018	      1.34887257	      1.04694710	      1.00879534	      0.00146086	     -5.16351519	     -1.49954819	    -13.37715333	    -54.78810400	     -7.43818024	      2.33906027	     16.39630864	      3.65847354	     -4.72996054	    -19.22524449	    -21.05670897	      0.57754268	     -2.32135384	      6.45851806	    -13.75584155	     -6.54557053	    -24.45029171
